<svg width="228" height="229" xmlns="http://www.w3.org/2000/svg" xmlns:xlink="http://www.w3.org/1999/xlink" overflow="hidden"><defs><clipPath id="clip0"><rect x="171" y="274" width="228" height="229"/></clipPath><clipPath id="clip1"><rect x="171" y="275" width="227" height="227"/></clipPath><clipPath id="clip2"><rect x="171" y="275" width="227" height="227"/></clipPath></defs><g clip-path="url(#clip0)" transform="translate(-171 -274)"><g clip-path="url(#clip1)"><g clip-path="url(#clip2)"><path d="M606.611 372.209C606.611 351.293 623.567 334.337 644.483 334.337L795.967 334.337C816.883 334.337 833.839 351.293 833.839 372.209L833.839 523.693C833.839 544.609 816.883 561.565 795.967 561.565L644.483 561.565C623.567 561.565 606.611 544.609 606.611 523.693Z" fill="#FFFFFF" fill-rule="evenodd" transform="matrix(1.00001 0 0 1 -435.334 -61.1976)"/><text fill="#0D6EFD" font-family="Agency FB,Agency FB_MSFontService,sans-serif" font-weight="700" font-stretch="condensed" font-size="191" transform="matrix(1.00102 0 0 1.00101 194.735 470)">B</text><text fill="#FBBF10" font-family="Agency FB,Agency FB_MSFontService,sans-serif" font-weight="700" font-stretch="condensed" font-size="221" transform="matrix(1.00102 0 0 1.00101 282.939 427)">+</text></g></g></g></svg>